<svg xmlns="http://www.w3.org/2000/svg" viewBox="0 0 32 32"><path d="M10.193 29h-.007c-.455-.003-.913-.099-1.326-.278-1.144-.495-1.856-1.558-1.859-2.772v-19.872c.003-1.214.733-2.312 1.86-2.801.41-.179.858-.274 1.326-.277.76.006 1.479.253 2.04.696l13.569 9.918c.764.575 1.199 1.439 1.205 2.379-.006.953-.441 1.817-1.193 2.384l-13.611 9.95c-.53.42-1.25.667-1.996.673h-.008zm-.008-24c-.176.001-.361.039-.522.11-.409.177-.66.548-.661.971v19.866c.001.41.246.763.655.939.166.072.351.111.535.113.302-.004.583-.098.795-.265l13.63-9.965c.238-.18.383-.466.385-.777-.002-.298-.146-.584-.396-.772l-13.589-9.932c-.244-.191-.529-.286-.832-.288z"/></svg>
