<svg xmlns="http://www.w3.org/2000/svg" xmlns:xlink="http://www.w3.org/1999/xlink" viewBox="0 0 32 32"><defs><path id="a" d="M0 0h32v32h-32z"/></defs><clipPath id="b"><use xlink:href="#a" overflow="visible"/></clipPath><g clip-path="url(#b)"><defs><path id="c" d="M0 0h32v32h-32z"/></defs><clipPath id="d"><use xlink:href="#c" overflow="visible"/></clipPath><path d="M.879 31.121c.586.586 1.353.879 2.121.879s1.535-.293 2.121-.879l7.065-7.066c1.982 1.226 4.31 1.945 6.814 1.945 7.18 0 13-5.82 13-13s-5.82-13-13-13-13 5.82-13 13c0 2.5.719 4.832 1.943 6.813l-7.064 7.066c-1.172 1.172-1.172 3.07 0 4.242m10.121-18.121c0-4.41 3.588-8 8-8 4.41 0 8 3.59 8 8s-3.59 8-8 8c-4.412 0-8-3.59-8-8" clip-path="url(#d)"/></g></svg>
