<svg xmlns="http://www.w3.org/2000/svg" viewBox="0 0 32 32"><path d="M16.001 2c2.797 0 4 3.183 4 4.192-.001 1.024.092 3.634.954 5.756-.273.043-.588.083-.951.117l-.653.043-.513.451c-.68.599-2.01 1.441-2.837 1.441-.83 0-2.189-.859-2.842-1.436l-.494-.441-.659-.06c-.366-.033-.683-.073-.958-.117.862-2.122.954-4.73.953-5.753 0-.976 1.247-4.193 4-4.193m0-2c-3.957 0-6 4.129-6 6.193 0 0 .004 5.468-2 6.636 0 0 .402.915 3.824 1.225 0 0 2.175 1.945 4.176 1.945 1.995 0 4.159-1.941 4.16-1.941 3.43-.311 3.84-1.229 3.84-1.229-2.004-1.168-2-6.636-2-6.636 0-2.064-1.957-6.193-6-6.193zM16.001 20c5.514 0 10 4.486 10 10h-20c0-5.514 4.486-10 10-10m0-2c-6.602 0-12 5.4-12 12 0 1.1.898 2 2 2h20c1.098 0 2-.9 2-2 0-6.6-5.402-12-12-12z"/></svg>
