<svg xmlns="http://www.w3.org/2000/svg" viewBox="0 0 32 32"><path d="M28 4h-3.001v-2c0-.552-.448-1-1-1s-.999.448-.999 1v2h-14.001v-2c0-.552-.448-1-1-1s-.999.448-.999 1v2h-3c-1.654 0-3 1.346-3 3v21c0 1.654 1.346 3 3 3h24c1.654 0 3-1.346 3-3v-21c0-1.654-1.346-3-3-3zm-24 2h3v1c0 .552.447 1 .999 1s1-.448 1-1v-1h14.001v1c0 .552.447 1 .999 1s1-.448 1-1v-1h3.001c.552 0 1 .449 1 1v3h-26v-3c0-.551.448-1 1-1zm7 13h-8v-8h8v8zm.999-8h8.001v8h-8.001v-8zm9 0h8.001v8h-8.001v-8zm-16.999 18c-.552 0-1-.449-1-1v-8h8v9h-7zm7.999 0v-9h8.001v9h-8.001zm16.001 0h-7.001v-9h8.001v8c0 .551-.448 1-1 1z"/></svg>
