<?xml version="1.0" encoding="utf-8"?>
<!-- Generator: Adobe Illustrator 21.0.0, SVG Export Plug-In . SVG Version: 6.00 Build 0)  -->
<!DOCTYPE svg PUBLIC "-//W3C//DTD SVG 1.1//EN" "http://www.w3.org/Graphics/SVG/1.1/DTD/svg11.dtd">
<svg version="1.1"
	 id="Layer_1" xmlns:cc="http://creativecommons.org/ns#" xmlns:dc="http://purl.org/dc/elements/1.1/" xmlns:inkscape="http://www.inkscape.org/namespaces/inkscape" xmlns:rdf="http://www.w3.org/1999/02/22-rdf-syntax-ns#" xmlns:sodipodi="http://sodipodi.sourceforge.net/DTD/sodipodi-0.dtd" xmlns:svg="http://www.w3.org/2000/svg"
	 xmlns="http://www.w3.org/2000/svg" xmlns:xlink="http://www.w3.org/1999/xlink" x="0px" y="0px" viewBox="0 0 68 84"
	 style="enable-background:new 0 0 68 84;" xml:space="preserve">
<path transform="translate(0,-952.36218)" d="M33.8,952.4c-0.2,0-0.4,0.1-0.6,0.1l-32,14c-0.7,0.3-1.2,1.1-1.2,1.8
	c0,21.5,1.3,33.9,6.2,43.4c5,9.4,13.4,15.4,26.7,24.3c0.6,0.4,1.5,0.4,2.2,0c13.4-8.9,21.7-14.9,26.7-24.3
	c4.9-9.5,6.2-21.9,6.2-43.4c0-0.8-0.5-1.6-1.2-1.8l-32-14C34.5,952.4,34.2,952.3,33.8,952.4z M34,956.5L64,969.6
	c0,20.5-1.4,32-5.7,40.3c-4.3,8.1-11.7,13.7-24.2,22c-12.5-8.4-19.9-13.9-24.2-22c-4.3-8.3-5.7-19.8-5.7-40.3L34,956.5z M34,973.4
	c-2.8,0-5,2.2-5,5l1,18c0,2.2,1.8,4,4,4c2.2,0,4-1.8,4-4l1-18C39,975.6,36.7,973.4,34,973.4z M34,1003.4c-2.8,0-5,2.2-5,5
	c0,2.8,2.3,5,5,5c2.7,0,5-2.2,5-5C39,1005.6,36.7,1003.4,34,1003.4z"/>
</svg>
