<?xml version="1.0" encoding="UTF-8"?>
<svg width="90px" height="81px" viewBox="0 0 90 81" version="1.1" xmlns="http://www.w3.org/2000/svg" xmlns:xlink="http://www.w3.org/1999/xlink">
    <!-- Generator: Sketch 64 (93537) - https://sketch.com -->
    <title>warning.colors-warning-white</title>
    <desc>Created with Sketch.</desc>
    <g id="Page-1" stroke="none" stroke-width="1" fill="none" fill-rule="evenodd">
        <g id="warning.colors-warning-white" fill="#B2A216" fill-rule="nonzero">
            <path d="M81.2,80.3 L8.8,80.3 C5.6,80.3 2.8,78.7 1.2,75.9 C-0.4,73.2 -0.4,69.9 1.2,67.2 L37.4,4.4 C39,1.7 41.8,0 45,0 L45,0 C48.2,0 51,1.6 52.6,4.4 L88.8,67.2 C90.4,69.9 90.4,73.2 88.8,75.9 C87.2,78.7 84.4,80.3 81.2,80.3 Z M6.9,70.5 C6.3,71.5 6.7,72.4 6.9,72.7 C7.1,73 7.7,73.8 8.8,73.8 L81.3,73.8 C82.4,73.8 83,73 83.2,72.7 C83.4,72.4 83.8,71.5 83.2,70.5 L46.9,7.7 C46.3,6.7 45.4,6.6 45,6.6 C44.6,6.6 43.7,6.7 43.1,7.7 L6.9,70.5 Z M45,56.5 C43.2,56.5 42,55 42,53.2 L42,25.7 C42,23.9 43.2,22.4 45,22.4 C46.8,22.4 48,23.9 48,25.7 L48,53.2 C48,55 46.8,56.5 45,56.5 Z M45,61.1 C47.2,61.1 48.9,62.8 48.9,65 C48.9,67.2 47.2,68.9 45,68.9 C42.8,68.9 41.1,67.2 41.1,65 C41.1,62.8 42.8,61.1 45,61.1 Z" id="Shape"></path>
        </g>
    </g>
</svg>