<svg viewBox="0 0 300 300" xmlns="http://www.w3.org/2000/svg"><g fill="none"><circle fill="#fff" cx="150" cy="150" r="150"/><g fill-rule="nonzero"><path d="M224.48 117.6s-1.482-11.177-6.039-16.098c-5.783-6.451-12.259-6.489-15.229-6.854-21.272-1.648-53.179-1.648-53.179-1.648h-.071s-31.906 0-53.174 1.648c-2.97.366-9.441.404-15.229 6.854-4.552 4.921-6.039 16.098-6.039 16.098s-1.52 13.115-1.52 26.23v12.293c0 13.124 1.52 26.234 1.52 26.234s1.482 11.172 6.039 16.084c5.787 6.451 13.375 6.256 16.758 6.93 12.159 1.245 51.682 1.629 51.682 1.629s31.939-.057 53.212-1.686c2.97-.38 9.446-.418 15.229-6.868 4.552-4.912 6.039-16.084 6.039-16.084s1.52-13.115 1.52-26.234v-12.293c0-13.119-1.52-26.234-1.52-26.234z" id="Path" fill="#E02F2F"/><path fill="#fff" d="M131 122v57l48-28.5z"/></g></g></svg>
