<?xml version="1.0" encoding="utf-8"?>
<!-- Generator: Adobe Illustrator 22.0.1, SVG Export Plug-In . SVG Version: 6.00 Build 0)  -->
<!DOCTYPE svg PUBLIC "-//W3C//DTD SVG 1.1//EN" "http://www.w3.org/Graphics/SVG/1.1/DTD/svg11.dtd">
<svg version="1.1" xmlns="http://www.w3.org/2000/svg" xmlns:xlink="http://www.w3.org/1999/xlink" x="0px" y="0px"
	 viewBox="0 0 700 500" style="enable-background:new 0 0 700 500;" xml:space="preserve">
<style type="text/css">
	.st0{fill:#155366;}
	.st1{opacity:0.5;}
	.st2{opacity:0.4;fill:url(#SVGID_1_);enable-background:new    ;}
	.st3{opacity:0.4;fill:url(#SVGID_2_);enable-background:new    ;}
	.st4{opacity:0.4;fill:url(#SVGID_3_);enable-background:new    ;}
	.st5{fill:url(#SVGID_4_);}
	.st6{fill:url(#SVGID_5_);}
	.st7{fill:url(#SVGID_6_);}
	.st8{fill:url(#SVGID_7_);}
	.st9{fill:url(#SVGID_8_);}
</style>
<g id="Layer_1">
	<g>
		<path class="st0" d="M0,0v500h279.9c0.8-0.2,1.6-0.3,2.5-0.3c4.1,0,8.2,0.2,12.3,0.3h10.7c1-0.2,2-0.4,3-0.3
			c1.7,0.1,3.4,0.2,5.1,0.3h22.8c4.2-0.3,8.4-0.1,12.6,0h20.6c0.8-0.2,1.6-0.3,2.5-0.3c1.7,0,3.4,0.1,5,0.3h5.4
			c13.7-0.4,27.4-0.1,41,0H700V0H0z"/>
	</g>
</g>
<g id="Layer_2">
	<g class="st1">
		
			<linearGradient id="SVGID_1_" gradientUnits="userSpaceOnUse" x1="266.6706" y1="172.7796" x2="622.4549" y2="378.1917" gradientTransform="matrix(1 0 0 1 0 -5.055828e-06)">
			<stop  offset="0.6" style="stop-color:#FFFFFF"/>
			<stop  offset="1" style="stop-color:#FFFFFF;stop-opacity:0"/>
		</linearGradient>
		<path class="st2" d="M444.7,107c13.4,7.8,25.9,17.2,36.8,28.2c10.9,10.9,20.4,23.3,28.2,36.8c7.7,13.3,13.7,27.6,17.8,42.8
			c3.9,14.7,6,30.1,6,45.9c0,15.9-2.1,31.3-6,45.9c-4.1,15.2-10.1,29.5-17.8,42.8c-7.8,13.4-17.2,25.9-28.2,36.8
			c-10.9,10.9-23.3,20.4-36.8,28.2c-13.2,7.7-27.6,13.7-42.8,17.8l9.6,36.1c18.4-4.9,35.7-12.2,51.8-21.5
			c16.3-9.4,31.3-20.9,44.5-34.1c13.2-13.2,24.7-28.2,34.1-44.5c9.3-16,16.6-33.5,21.5-51.7c4.8-17.7,7.3-36.4,7.3-55.6
			c0-19.3-2.5-37.8-7.3-55.6c-4.9-18.4-12.2-35.7-21.5-51.7c-9.4-16.3-20.9-31.3-34.1-44.5S479.7,84,463.4,74.6
			c-16-9.3-33.5-16.6-51.7-21.5c-17.7-4.8-36.4-7.3-55.6-7.3v37.3c15.9,0,31.3,2.1,45.9,6C417.1,93.3,431.4,99.3,444.7,107z"/>
		
			<linearGradient id="SVGID_2_" gradientUnits="userSpaceOnUse" x1="220.5235" y1="252.7087" x2="576.3078" y2="458.1209" gradientTransform="matrix(1 0 0 1 0 -5.055828e-06)">
			<stop  offset="0.6" style="stop-color:#FFFFFF"/>
			<stop  offset="1" style="stop-color:#FFFFFF;stop-opacity:0"/>
		</linearGradient>
		<path class="st3" d="M324.6,378.1c10,2.6,20.5,4.1,31.4,4.1c10.8,0,21.4-1.5,31.4-4c10.4-2.8,20.2-6.9,29.3-12.2
			c9.2-5.3,17.7-11.8,25.2-19.3l-26.4-26.4c-5.2,5.2-11,9.6-17.4,13.3c-6.3,3.7-13.1,6.5-20.3,8.5c-7,1.8-14.2,2.8-21.8,2.8
			s-14.9-1-21.8-2.8c-7.2-1.9-14-4.9-20.3-8.5c-6.3-3.7-12.3-8.2-17.4-13.3s-9.6-11-13.3-17.4c-3.7-6.3-6.5-13.1-8.5-20.3
			c-1.8-7-2.8-14.3-2.8-21.8c0-7.6,1-14.9,2.8-21.8c1.9-7.2,4.9-14,8.5-20.3l-32.3-18.7c-5.3,9-9.3,18.9-12.2,29.3
			c-2.6,10-4.1,20.5-4.1,31.4s1.4,21.4,4.1,31.4c2.8,10.4,6.9,20.2,12.2,29.3c5.3,9.2,11.8,17.7,19.3,25.2
			c7.5,7.5,16,13.9,25.2,19.3C304.4,371.2,314.2,375.3,324.6,378.1z"/>
		
			<linearGradient id="SVGID_3_" gradientUnits="userSpaceOnUse" x1="281.3315" y1="147.386" x2="637.1159" y2="352.7982" gradientTransform="matrix(1 0 0 1 0 -5.055828e-06)">
			<stop  offset="0.6" style="stop-color:#FFFFFF"/>
			<stop  offset="1" style="stop-color:#FFFFFF;stop-opacity:0"/>
		</linearGradient>
		<path class="st4" d="M635.5,185.9c-6.6-24.7-16.4-48.1-28.9-69.8c-12.7-22-28.2-42.1-46-59.9c-17.8-18-37.9-33.5-59.9-46.2
			l-18.7,32.4c19.1,11.1,36.7,24.5,52.2,40.1c15.6,15.6,29,33.1,40.1,52.2c10.9,18.9,19.5,39.3,25.2,60.8
			c5.5,20.8,8.6,42.7,8.6,65.3s-3,44.4-8.6,65.3c-5.7,21.5-14.3,41.9-25.2,60.8c-11.1,19.2-24.5,36.7-40.1,52.2
			c-15.6,15.6-33.1,29-52.2,40.1c-14.8,8.5-30.6,15.6-47,21.1c0.3,0,0.6,0.1,0.9,0.2c0.8-0.2,1.6-0.3,2.4-0.3c3.3,0,6.7,0,10,0.3
			c0.5,0,1,0.1,1.5,0.2c23-0.2,46-0.5,69-0.5c15-10.2,29-21.8,41.8-34.6c17.8-17.8,33.4-37.9,46-59.9c12.5-21.7,22.4-45.1,28.9-69.8
			c6.4-23.9,9.8-49,9.8-74.9S642,209.8,635.5,185.9z"/>
		
			<linearGradient id="SVGID_4_" gradientUnits="userSpaceOnUse" x1="228.6249" y1="173.5368" x2="636.9164" y2="409.2641" gradientTransform="matrix(1 0 0 1 0 -5.055828e-06)">
			<stop  offset="0.6" style="stop-color:#FFFFFF"/>
			<stop  offset="1" style="stop-color:#FFFFFF;stop-opacity:0"/>
		</linearGradient>
		<path class="st5" d="M324.5,143.2c10-2.6,20.5-4.1,31.3-4.1c0.1,0,0.1,0,0.2,0c10.9,0,21.4,1.5,31.4,4.2
			c10.4,2.8,20.2,6.9,29.3,12.2c9.2,5.3,17.7,11.9,25.1,19.4c7.5,7.5,13.9,16,19.3,25.2c5.3,9,9.3,18.9,12.1,29.3
			c2.6,10,4.1,20.5,4.1,31.3v0.1c0,10.9-1.5,21.4-4.2,31.4c-2.8,10.4-6.9,20.1-12.2,29.3c-5.3,9.2-11.8,17.7-19.3,25.1
			c-7.5,7.5-16,13.9-25.1,19.3c-9,5.3-18.9,9.3-29.3,12.2c-10,2.7-20.5,4.2-31.4,4.2v56c16.2,0,31.6-2.1,46.2-6
			c15.2-4.1,29.5-10.1,42.7-17.8c13.4-7.8,25.8-17.2,36.7-28.2c10.9-10.9,20.3-23.2,28.1-36.8c7.7-13.2,13.7-27.6,17.7-42.7
			c3.9-14.7,6-30.1,6-45.9v-0.1c0-15.9-2.1-31.2-6-45.8c-4.1-15.2-10-29.5-17.7-42.8c-7.8-13.4-17.2-25.9-28.1-36.8
			s-23.2-20.4-36.8-28.2c-13.2-7.7-27.6-13.7-42.8-17.8c-14.7-3.9-30.1-6-45.9-6.1c-0.1,0-0.1,0-0.2,0c-15.9,0-31.2,2.1-45.8,6
			c-15.2,4.1-29.6,10-42.8,17.7l28,48.5C304.3,150.2,314.1,146.1,324.5,143.2z"/>
		
			<linearGradient id="SVGID_5_" gradientUnits="userSpaceOnUse" x1="222.7115" y1="183.7791" x2="631.0031" y2="419.5064" gradientTransform="matrix(1 0 0 1 0 -5.055828e-06)">
			<stop  offset="0.6" style="stop-color:#FFFFFF"/>
			<stop  offset="1" style="stop-color:#FFFFFF;stop-opacity:0"/>
		</linearGradient>
		<circle class="st6" cx="356" cy="260.7" r="84.1"/>
		
			<linearGradient id="SVGID_6_" gradientUnits="userSpaceOnUse" x1="74.8641" y1="439.8585" x2="483.1556" y2="675.5856" gradientTransform="matrix(1 0 0 1 0 -5.055828e-06)">
			<stop  offset="0.6" style="stop-color:#FFFFFF"/>
			<stop  offset="1" style="stop-color:#FFFFFF;stop-opacity:0"/>
		</linearGradient>
		<path class="st7" d="M173,500.1h19.9c-14.9-10.2-28.7-21.6-41.5-34.3l-19.8,19.5c5.1,5.1,10.4,10,15.8,14.8c0.1,0,0.2,0,0.2,0
			c7.8,0,15.7,0.1,23.5,0.1C171.8,500.1,172.4,500.1,173,500.1z"/>
		
			<linearGradient id="SVGID_7_" gradientUnits="userSpaceOnUse" x1="222.7091" y1="183.7833" x2="631.0006" y2="419.5105" gradientTransform="matrix(1 0 0 1 0 -5.055828e-06)">
			<stop  offset="0.6" style="stop-color:#FFFFFF"/>
			<stop  offset="1" style="stop-color:#FFFFFF;stop-opacity:0"/>
		</linearGradient>
		<path class="st8" d="M599.7,195.8c-5.7-21.6-14.3-41.9-25.2-60.8c-11-19.2-24.5-36.7-40-52.2c-15.6-15.6-33.1-29-52.2-40.1
			c-18.9-10.9-39.3-19.5-60.8-25.3l-9.6,36.1c18.3,4.9,35.7,12.2,51.7,21.5c16.2,9.4,31.2,20.9,44.4,34.1
			c13.2,13.2,24.6,28.2,34,44.5c9.2,16,16.5,33.4,21.4,51.7c4.8,17.7,7.3,36.3,7.3,55.4v0.1c0,19.2-2.5,37.8-7.3,55.5
			c-5,18.4-12.2,35.7-21.5,51.7c-9.4,16.2-20.8,31.2-34,44.4s-28.2,24.7-44.4,34.1c-16,9.3-33.4,16.5-51.7,21.5
			c-17.7,4.7-36.3,7.3-55.5,7.3c-0.1,0-0.1,0-0.2,0c-19.2,0-37.7-2.6-55.4-7.3c-18.4-5-35.8-12.3-51.8-21.5l-18.7,32.3
			c14.7,8.5,30.4,15.6,46.8,21c0.8,0,1.7,0,2.5,0c0.9-0.2,1.9-0.4,2.9-0.4c5.6,0,11.1,0.3,16.7,0.3c0.7,0,1.4,0.1,2,0.2
			c0.2,0,0.4,0,0.7,0c0.7-0.1,1.5-0.2,2.3-0.2c0.3,0,0.6,0,1,0c1.1-0.3,2.2-0.4,3.4-0.4c3.7,0.3,7.3,0.3,11,0.3c0.1,0,0.1,0,0.2,0
			c0.1,0,0.1,0,0.2,0H330c0.7,0,1.3,0.1,1.9,0.2c0.6-0.1,1.2-0.1,1.8-0.2c0.7-0.1,1.3-0.1,1.9,0c5.5-0.4,10.8-0.1,16.4,0h16.7
			c0.2,0,0.4,0,0.5,0c0.9-0.2,1.9-0.4,2.8-0.4c2.3,0,4.4,0.2,6.6,0.4c0.4-0.1,0.9-0.1,1.4-0.1c17.8-0.6,35.6,0,53.3,0
			c0.6,0,1.1,0,1.6,0.1c16.5-5.5,32.2-12.6,47.1-21.2c19.2-11.1,36.8-24.5,52.2-40.1c15.5-15.5,29-33.1,40.3-52
			c10.9-18.8,19.5-39.2,25.2-60.7c5.5-20.7,8.6-42.6,8.6-65.2v-0.1C608.3,238.4,605.3,216.6,599.7,195.8z"/>
		
			<linearGradient id="SVGID_8_" gradientUnits="userSpaceOnUse" x1="267.8947" y1="105.5196" x2="676.1862" y2="341.2468" gradientTransform="matrix(1 0 0 1 0 -5.055828e-06)">
			<stop  offset="0.6" style="stop-color:#FFFFFF"/>
			<stop  offset="1" style="stop-color:#FFFFFF;stop-opacity:0"/>
		</linearGradient>
		<path class="st9" d="M662.8,178.8c-7.2-27.1-18-52.8-31.7-76.5c-13.9-24.1-30.9-46.2-50.5-65.7l-19.8,19.8
			c17.8,17.8,33.3,37.9,46,59.9c12.5,21.7,22.3,45,28.9,69.8c6.3,23.8,9.8,48.9,9.8,74.8v0.1c0,25.9-3.4,51-9.8,74.9
			c-6.6,24.7-16.4,48.1-28.9,69.7c-12.7,22-28.2,42.1-46,59.9c-12.7,12.7-26.7,24.3-41.6,34.5c1,0,1.9,0,2.9,0c0.5,0,0.9,0,1.3,0.1
			c0.4,0,0.9-0.1,1.4-0.1c13.3,0,26.6,0.2,39.9,0.1c5.5-4.8,10.8-9.8,16-14.9c19.5-19.5,36.6-41.6,50.5-65.7
			c13.7-23.7,24.5-49.4,31.7-76.5c7-26.2,10.8-53.7,10.8-82.1v-0.1C673.5,232.4,669.8,205,662.8,178.8z"/>
	</g>
</g>
</svg>
