<svg xmlns="http://www.w3.org/2000/svg" width="32" height="32" viewBox="0 0 32 32">
  <g fill="#155366" fill-rule="evenodd" transform="translate(4 1)">
    <path d="M13.2804015,28.9842175 C12.5377359,29.5914112 11.4685468,29.5857862 10.7323109,28.970812 L10.7323218,28.9707989 C3.57744062,22.9943614 0,17.0040951 0,11 C0,4.90582345 5.372583,0 12,0 C18.627417,0 24,4.90582345 24,11 C24,17.1466757 20.4268005,23.1414149 13.2804015,28.9842175 Z M12.6416682,27.1633724 C18.8805561,21.9373418 22,16.549551 22,11 C22,6.07228693 17.5228475,2 12,2 C6.4771525,2 2,6.38869318 2,11.3164063 C2,16.6664214 5.11939226,21.9489613 11.3581768,27.1640262 C11.7297272,27.4746166 12.2704328,27.4743393 12.6416682,27.1633724 Z"/>
    <path d="M12,17 C9.23857625,17 7,14.7614237 7,12 C7,9.23857625 9.23857625,7 12,7 C14.7614237,7 17,9.23857625 17,12 C17,14.7614237 14.7614237,17 12,17 Z M12,16 C14.209139,16 16,14.209139 16,12 C16,9.790861 14.209139,8 12,8 C9.790861,8 8,9.790861 8,12 C8,14.209139 9.790861,16 12,16 Z"/>
  </g>
</svg>
