<?xml version="1.0" encoding="utf-8"?>
<!-- Generator: Adobe Illustrator 21.0.0, SVG Export Plug-In . SVG Version: 6.00 Build 0)  -->
<!DOCTYPE svg PUBLIC "-//W3C//DTD SVG 1.1//EN" "http://www.w3.org/Graphics/SVG/1.1/DTD/svg11.dtd">
<svg version="1.1" id="Layer_1" xmlns="http://www.w3.org/2000/svg" xmlns:xlink="http://www.w3.org/1999/xlink" x="0px" y="0px"
	 viewBox="0 0 90 80.3" style="enable-background:new 0 0 90 80.3;" xml:space="preserve">
<path d="M81.2,80.3H8.8c-3.2,0-6-1.6-7.6-4.4c-1.6-2.7-1.6-6,0-8.7L37.4,4.4C39,1.7,41.8,0,45,0l0,0c3.2,0,6,1.6,7.6,4.4l36.2,62.8
	c1.6,2.7,1.6,6,0,8.7C87.2,78.7,84.4,80.3,81.2,80.3z M6.9,70.5c-0.6,1-0.2,1.9,0,2.2c0.2,0.3,0.8,1.1,1.9,1.1h72.5
	c1.1,0,1.7-0.8,1.9-1.1c0.2-0.3,0.6-1.2,0-2.2L46.9,7.7c-0.6-1-1.5-1.1-1.9-1.1s-1.3,0.1-1.9,1.1L6.9,70.5z M45,56.5
	c-1.8,0-3-1.5-3-3.3V25.7c0-1.8,1.2-3.3,3-3.3s3,1.5,3,3.3v27.5C48,55,46.8,56.5,45,56.5z M45,61.1c2.2,0,3.9,1.7,3.9,3.9
	s-1.7,3.9-3.9,3.9s-3.9-1.7-3.9-3.9S42.8,61.1,45,61.1z"/>
</svg>
