<svg xmlns="http://www.w3.org/2000/svg" width="355" height="220" viewBox="0 0 355 220">
  <g fill="none">
    <polygon fill="#185568" points="2.6 208.7 2.6 102.2 33.4 102.2 33.4 208.7"/>
    <path fill="#185568" d="M126 198.4C119 206.9 109 211.7 95.6 211.7 74.2 211.7 56.9 198.4 56.9 177.8 56.9 157.5 74.2 147.4 98.4 146.1 117 145 122.9 143 122.9 136.7 122.9 130.6 117.2 126.4 107.2 126.4 95 126.4 89.7 132.5 89.1 139.1L59.2 139.1C60.7 115.7 78.2 99.6 107.5 99.6 136.1 99.6 154.5 115.1 154.5 144.2L154.5 209.3 128.9 209.3 126 198.4zM88 176.5C88 182.6 93.5 186.3 102.2 186.3 114 186.3 123.4 179.7 123.4 166.4L123.4 162.5C123.4 162.5 117.7 165.1 105.9 165.8 93.1 166.5 88 170.6 88 176.5zM223 209.7C199.6 209.7 186.1 196.2 186.1 172.6L186.1 130.9 168.2 130.9 168.2 102.3 186.1 102.3 186.1 86.5 217.1 60.3 217.1 102.2 244 102.2 244 130.8 217.1 130.8 217.1 168.2C217.1 178.5 223.9 180.9 230.2 180.9 237.4 180.9 243.3 178.1 243.3 178.1L243.3 206.3C243.3 206.3 235 209.7 223 209.7zM0 70.2C0 60.2 7.9 52.1 17.9 52.1 27.9 52.1 36 60.2 36 70.2 36 80 27.9 88.1 17.9 88.1 7.9 88.1 0 80.1 0 70.2z"/>
    <polygon fill="#185568" points="266.9 208.7 266.9 102.2 297.7 102.2 297.7 208.7"/>
    <g transform="translate(227)">
      <path fill="#185568" d="M110.9,70.5 C110.9,65.6 110.2,60.8 109,56.2 C107.7,51.5 105.9,47 103.5,42.9 C101.1,38.7 98.1,34.9 94.7,31.5 C91.3,28.1 87.5,25.2 83.3,22.7 C79.2,20.3 74.7,18.4 70,17.2 C65.4,16 60.7,15.3 55.7,15.3 C55.7,15.3 55.7,15.3 55.7,15.3 C50.8,15.3 46,16 41.4,17.2 C36.7,18.5 32.2,20.3 28.1,22.7 C23.9,25.1 20.1,28.1 16.7,31.5 C13.3,34.9 10.3,38.7 7.9,42.9 C5.5,47 3.6,51.5 2.4,56.2 L10.3,58.3 C11.4,54.3 13,50.5 15,47 C17.1,43.4 19.6,40.2 22.5,37.3 C25.4,34.4 28.7,31.9 32.2,29.8 C35.7,27.8 39.5,26.2 43.5,25.1 C47.4,24.1 51.4,23.5 55.6,23.5 C55.6,23.5 55.6,23.5 55.6,23.5 C59.8,23.5 63.9,24.1 67.8,25.1 C71.8,26.2 75.6,27.8 79.1,29.8 C82.7,31.9 85.9,34.4 88.8,37.3 C91.7,40.2 94.2,43.5 96.3,47 C98.3,50.5 99.9,54.3 101,58.3 C102,62.2 102.6,66.3 102.6,70.5 C102.6,70.5 102.6,70.5 102.6,70.5 C102.6,74.7 102,78.8 101,82.6 C99.9,86.6 98.3,90.4 96.3,93.9 L103.4,98 C105.8,93.9 107.7,89.4 108.9,84.7 C110.2,80.2 110.9,75.5 110.9,70.5 C110.9,70.5 110.9,70.5 110.9,70.5 Z"/>
      <path fill="#185568" d="M125.2,70.5 C125.2,64.3 124.4,58.2 122.8,52.5 C121.2,46.6 118.9,40.9 115.8,35.7 C112.7,30.4 109,25.6 104.7,21.3 C100.4,17 95.6,13.3 90.3,10.2 C85.1,7.2 79.5,4.8 73.5,3.3 C67.8,1.8 61.7,0.9 55.5,0.9 C55.5,0.9 55.5,0.9 55.5,0.9 C49.3,0.9 43.3,1.7 37.5,3.2 C31.6,4.8 25.9,7.1 20.7,10.1 C15.4,13.1 10.6,16.9 6.3,21.1 L10.6,25.4 C14.5,21.5 18.9,18.1 23.7,15.3 C28.4,12.6 33.6,10.4 39,9 C44.2,7.6 49.7,6.9 55.4,6.9 C55.4,6.9 55.4,6.9 55.4,6.9 C61.1,6.9 66.6,7.7 71.8,9.1 C77.2,10.5 82.3,12.7 87.1,15.4 C91.9,18.2 96.3,21.6 100.2,25.5 C104.1,29.4 107.5,33.8 110.3,38.6 C113,43.3 115.2,48.5 116.6,53.9 C118,59.1 118.8,64.6 118.8,70.3 C118.8,70.3 118.8,70.3 118.8,70.3 C118.8,76 118.1,81.4 116.7,86.7 C115.3,92.1 113.1,97.3 110.4,102 C107.6,106.8 104.2,111.2 100.3,115.1 L104.6,119.4 C108.9,115.1 112.6,110.3 115.7,105 C118.7,99.8 121.1,94.2 122.6,88.2 C124.4,82.8 125.2,76.7 125.2,70.5 C125.2,70.5 125.2,70.5 125.2,70.5 Z"/>
      <path fill="#185568" d="M93.2,60.4 C92.3,57.1 91,53.9 89.3,51 C87.6,48.1 85.5,45.3 83.1,43 C80.7,40.6 78,38.5 75.1,36.8 C72.2,35.1 69.1,33.8 65.7,32.9 C62.5,32 59.1,31.6 55.7,31.6 C55.7,31.6 55.7,31.6 55.7,31.6 C52.2,31.6 48.9,32.1 45.7,32.9 C42.4,33.8 39.2,35.1 36.3,36.8 C33.4,38.5 30.6,40.6 28.2,43 C25.8,45.4 23.7,48.1 22,51 C20.3,53.9 19,57 18.1,60.4 C17.2,63.6 16.8,67 16.8,70.5 C16.8,70.5 16.8,70.5 16.8,70.5 C16.8,74 17.3,77.3 18.1,80.5 C19,83.8 20.3,87 22,89.9 L32.6,83.8 C31.4,81.8 30.5,79.7 29.9,77.4 C29.3,75.2 29,72.9 29,70.5 C29,70.5 29,70.5 29,70.5 C29,68.1 29.3,65.8 29.9,63.6 C30.5,61.3 31.4,59.2 32.6,57.2 C33.8,55.2 35.2,53.3 36.8,51.7 C38.4,50.1 40.3,48.6 42.3,47.5 C44.3,46.4 46.4,45.5 48.7,44.8 C50.9,44.2 53.2,43.9 55.6,43.9 C55.6,43.9 55.6,43.9 55.6,43.9 C58,43.9 60.3,44.2 62.5,44.8 C64.8,45.4 66.9,46.3 68.9,47.5 C70.9,48.7 72.8,50.1 74.4,51.7 C76,53.3 77.5,55.2 78.6,57.2 C79.8,59.2 80.7,61.3 81.3,63.6 C81.9,65.8 82.2,68.1 82.2,70.5 L94.5,70.5 C94.5,67 94.1,63.6 93.2,60.4 Z"/>
      <g fill="#A7EBEF" transform="translate(0 7)">
        <path d="M81.4,56.6 C80.8,54.3 79.9,52.2 78.7,50.2 C77.5,48.2 76.1,46.3 74.5,44.7 L68.7,50.5 C69.8,51.6 70.8,52.9 71.6,54.3 C72.4,55.7 73,57.2 73.4,58.7 C73.8,60.2 74,61.8 74,63.5 C74,65.2 73.8,66.7 73.4,68.3 C73,69.9 72.4,71.4 71.6,72.7 C70.8,74.1 69.8,75.4 68.7,76.5 C67.6,77.6 66.3,78.6 64.9,79.4 C63.5,80.2 62,80.8 60.5,81.2 C59,81.6 57.4,81.8 55.7,81.8 C54,81.8 52.5,81.6 50.9,81.2 C49.3,80.8 47.8,80.2 46.5,79.4 L42.4,86.5 C44.4,87.7 46.5,88.6 48.8,89.2 C51,89.8 53.3,90.1 55.7,90.1 C58.1,90.1 60.4,89.8 62.6,89.2 C64.9,88.6 67,87.7 69,86.5 C71,85.3 72.9,83.9 74.5,82.3 C76.1,80.7 77.6,78.8 78.7,76.8 C79.9,74.8 80.8,72.7 81.4,70.4 C82,68.2 82.3,65.9 82.3,63.5 C82.3,61.1 82,58.8 81.4,56.6 Z"/>
        <path d="M96.4,40 C94.3,36.4 91.8,33.2 88.9,30.3 C86,27.4 82.7,24.9 79.2,22.8 C75.7,20.8 71.9,19.2 67.9,18.1 C64,17.1 59.9,16.5 55.7,16.5 C51.5,16.5 47.4,17.1 43.5,18.1 C39.5,19.2 35.7,20.8 32.2,22.8 C28.6,24.9 25.4,27.4 22.5,30.3 C19.6,33.2 17.1,36.5 15,40 C13,43.5 11.4,47.3 10.3,51.3 C9.3,55.2 8.7,59.3 8.7,63.5 L16.9,63.5 C16.9,60 17.4,56.6 18.2,53.4 C19.1,50.1 20.4,46.9 22.1,44 C23.8,41.1 25.9,38.3 28.3,35.9 C30.7,33.5 33.4,31.4 36.4,29.7 C39.3,28 42.5,26.7 45.8,25.8 C49,24.9 52.4,24.5 55.9,24.5 C59.4,24.5 62.8,25 66,25.8 C69.3,26.7 72.5,28 75.4,29.7 C78.3,31.4 81.1,33.5 83.5,35.9 C85.9,38.3 88,41 89.7,44 C91.4,46.9 92.7,50.1 93.6,53.4 L101.5,51.3 C100,47.3 98.4,43.5 96.4,40 Z"/>
        <path d="M116.9,47.1 C115.5,41.7 113.3,36.6 110.6,31.8 C107.8,27 104.4,22.6 100.5,18.7 C96.6,14.8 92.2,11.4 87.4,8.6 C82.7,5.9 77.5,3.7 72.1,2.3 C66.9,0.9 61.4,0.2 55.7,0.2 C50,0.2 44.5,1 39.3,2.3 C33.9,3.7 28.8,5.9 24,8.6 C19.2,11.4 14.8,14.8 10.9,18.7 C7,22.6 3.6,27 0.8,31.8 L7.9,35.9 C10.3,31.7 13.3,27.9 16.7,24.5 C20.1,21.1 24,18.2 28.1,15.7 C32.2,13.3 36.7,11.4 41.4,10.2 C46,9 50.7,8.3 55.7,8.3 C60.7,8.3 65.4,9 70,10.2 C74.7,11.5 79.2,13.3 83.3,15.7 C87.5,18.1 91.3,21.1 94.7,24.5 C98.1,27.9 101,31.8 103.5,35.9 C105.9,40 107.8,44.5 109,49.2 C110.2,53.8 110.9,58.5 110.9,63.5 C110.9,68.4 110.2,73.2 109,77.8 L116.9,79.9 C118.3,74.7 119,69.2 119,63.5 C119.1,57.9 118.3,52.4 116.9,47.1 Z"/>
      </g>
      <circle cx="55.7" cy="70.5" r="18.4" fill="#185568"/>
    </g>
  </g>
</svg>
