<?xml version="1.0" encoding="utf-8"?>
<!-- Generator: Adobe Illustrator 22.0.1, SVG Export Plug-In . SVG Version: 6.00 Build 0)  -->
<!DOCTYPE svg PUBLIC "-//W3C//DTD SVG 1.1//EN" "http://www.w3.org/Graphics/SVG/1.1/DTD/svg11.dtd">
<svg version="1.1" id="Layer_1" xmlns="http://www.w3.org/2000/svg" xmlns:xlink="http://www.w3.org/1999/xlink" x="0px" y="0px"
	 viewBox="0 0 933.8 218.6" style="enable-background:new 0 0 933.8 218.6;" xml:space="preserve">
<style type="text/css">
	.st0{fill:#185568;}
	.st1{fill:#A7EBEF;}
</style>
<g>
	<g>
		<g>
			<path class="st0" d="M2.6,207.7V101.2h30.8v106.5H2.6z"/>
			<path class="st0" d="M126,197.4c-7,8.5-17,13.3-30.4,13.3c-21.4,0-38.7-13.3-38.7-33.9c0-20.3,17.3-30.4,41.5-31.7
				c18.6-1.1,24.5-3.1,24.5-9.4c0-6.1-5.7-10.3-15.7-10.3c-12.2,0-17.5,6.1-18.1,12.7H59.2c1.5-23.4,19-39.5,48.3-39.5
				c28.6,0,47,15.5,47,44.6v65.1h-25.6L126,197.4z M88,175.5c0,6.1,5.5,9.8,14.2,9.8c11.8,0,21.2-6.6,21.2-19.9v-3.9
				c0,0-5.7,2.6-17.5,3.3C93.1,165.5,88,169.6,88,175.5z"/>
			<path class="st0" d="M223,208.7c-23.4,0-36.9-13.5-36.9-37.1v-41.7h-17.9v-28.6h17.9V85.5l31-26.2v41.9H244v28.6h-26.9v37.4
				c0,10.3,6.8,12.7,13.1,12.7c7.2,0,13.1-2.8,13.1-2.8v28.2C243.3,205.3,235,208.7,223,208.7z"/>
			<path class="st0" d="M0,69.2c0-10,7.9-18.1,17.9-18.1S36,59.2,36,69.2c0,9.8-8.1,17.9-18.1,17.9S0,79.1,0,69.2z"/>
			<path class="st0" d="M266.9,207.7V101.2h30.8v106.5H266.9z"/>
			<g>
				<path class="st0" d="M337.9,69.5c0-4.9-0.7-9.7-1.9-14.3c-1.3-4.7-3.1-9.2-5.5-13.3c-2.4-4.2-5.4-8-8.8-11.4
					c-3.4-3.4-7.2-6.3-11.4-8.8c-4.1-2.4-8.6-4.3-13.3-5.5c-4.6-1.2-9.3-1.9-14.3-1.9c0,0,0,0,0,0c-4.9,0-9.7,0.7-14.3,1.9
					c-4.7,1.3-9.2,3.1-13.3,5.5c-4.2,2.4-8,5.4-11.4,8.8c-3.4,3.4-6.4,7.2-8.8,11.4c-2.4,4.1-4.3,8.6-5.5,13.3l7.9,2.1
					c1.1-4,2.7-7.8,4.7-11.3c2.1-3.6,4.6-6.8,7.5-9.7c2.9-2.9,6.2-5.4,9.7-7.5c3.5-2,7.3-3.6,11.3-4.7c3.9-1,7.9-1.6,12.1-1.6
					c0,0,0,0,0,0c4.2,0,8.3,0.6,12.2,1.6c4,1.1,7.8,2.7,11.3,4.7c3.6,2.1,6.8,4.6,9.7,7.5c2.9,2.9,5.4,6.2,7.5,9.7
					c2,3.5,3.6,7.3,4.7,11.3c1,3.9,1.6,8,1.6,12.2c0,0,0,0,0,0c0,4.2-0.6,8.3-1.6,12.1c-1.1,4-2.7,7.8-4.7,11.3l7.1,4.1
					c2.4-4.1,4.3-8.6,5.5-13.3C337.2,79.2,337.9,74.5,337.9,69.5C337.9,69.5,337.9,69.5,337.9,69.5z"/>
				<path class="st0" d="M352.2,69.5c0-6.2-0.8-12.3-2.4-18c-1.6-5.9-3.9-11.6-7-16.8c-3.1-5.3-6.8-10.1-11.1-14.4
					c-4.3-4.3-9.1-8-14.4-11.1c-5.2-3-10.8-5.4-16.8-6.9c-5.7-1.5-11.8-2.4-18-2.4c0,0,0,0,0,0c-6.2,0-12.2,0.8-18,2.3
					c-5.9,1.6-11.6,3.9-16.8,6.9c-5.3,3-10.1,6.8-14.4,11l4.3,4.3c3.9-3.9,8.3-7.3,13.1-10.1c4.7-2.7,9.9-4.9,15.3-6.3
					c5.2-1.4,10.7-2.1,16.4-2.1c0,0,0,0,0,0c5.7,0,11.2,0.8,16.4,2.2c5.4,1.4,10.5,3.6,15.3,6.3c4.8,2.8,9.2,6.2,13.1,10.1
					c3.9,3.9,7.3,8.3,10.1,13.1c2.7,4.7,4.9,9.9,6.3,15.3c1.4,5.2,2.2,10.7,2.2,16.4c0,0,0,0,0,0c0,5.7-0.7,11.1-2.1,16.4
					c-1.4,5.4-3.6,10.6-6.3,15.3c-2.8,4.8-6.2,9.2-10.1,13.1l4.3,4.3c4.3-4.3,8-9.1,11.1-14.4c3-5.2,5.4-10.8,6.9-16.8
					C351.4,81.8,352.2,75.7,352.2,69.5C352.2,69.5,352.2,69.5,352.2,69.5z"/>
				<path class="st0" d="M320.2,59.4c-0.9-3.3-2.2-6.5-3.9-9.4c-1.7-2.9-3.8-5.7-6.2-8c-2.4-2.4-5.1-4.5-8-6.2c-2.9-1.7-6-3-9.4-3.9
					c-3.2-0.9-6.6-1.3-10-1.3c0,0,0,0,0,0c-3.5,0-6.8,0.5-10,1.3c-3.3,0.9-6.5,2.2-9.4,3.9c-2.9,1.7-5.7,3.8-8.1,6.2
					c-2.4,2.4-4.5,5.1-6.2,8c-1.7,2.9-3,6-3.9,9.4c-0.9,3.2-1.3,6.6-1.3,10.1c0,0,0,0,0,0c0,3.5,0.5,6.8,1.3,10
					c0.9,3.3,2.2,6.5,3.9,9.4l10.6-6.1c-1.2-2-2.1-4.1-2.7-6.4c-0.6-2.2-0.9-4.5-0.9-6.9c0,0,0,0,0,0c0-2.4,0.3-4.7,0.9-6.9
					c0.6-2.3,1.5-4.4,2.7-6.4c1.2-2,2.6-3.9,4.2-5.5c1.6-1.6,3.5-3.1,5.5-4.2c2-1.1,4.1-2,6.4-2.7c2.2-0.6,4.5-0.9,6.9-0.9
					c0,0,0,0,0,0c2.4,0,4.7,0.3,6.9,0.9c2.3,0.6,4.4,1.5,6.4,2.7c2,1.2,3.9,2.6,5.5,4.2c1.6,1.6,3.1,3.5,4.2,5.5
					c1.2,2,2.1,4.1,2.7,6.4c0.6,2.2,0.9,4.5,0.9,6.9h12.3C321.5,66,321.1,62.6,320.2,59.4z"/>
				<g>
					<g>
						<path class="st1" d="M308.4,62.6c-0.6-2.3-1.5-4.4-2.7-6.4c-1.2-2-2.6-3.9-4.2-5.5l-5.8,5.8c1.1,1.1,2.1,2.4,2.9,3.8
							c0.8,1.4,1.4,2.9,1.8,4.4c0.4,1.5,0.6,3.1,0.6,4.8s-0.2,3.2-0.6,4.8c-0.4,1.6-1,3.1-1.8,4.4c-0.8,1.4-1.8,2.7-2.9,3.8
							c-1.1,1.1-2.4,2.1-3.8,2.9c-1.4,0.8-2.9,1.4-4.4,1.8c-1.5,0.4-3.1,0.6-4.8,0.6s-3.2-0.2-4.8-0.6c-1.6-0.4-3.1-1-4.4-1.8
							l-4.1,7.1c2,1.2,4.1,2.1,6.4,2.7c2.2,0.6,4.5,0.9,6.9,0.9c2.4,0,4.7-0.3,6.9-0.9c2.3-0.6,4.4-1.5,6.4-2.7
							c2-1.2,3.9-2.6,5.5-4.2c1.6-1.6,3.1-3.5,4.2-5.5c1.2-2,2.1-4.1,2.7-6.4c0.6-2.2,0.9-4.5,0.9-6.9S309,64.8,308.4,62.6z"/>
						<path class="st1" d="M323.4,46c-2.1-3.6-4.6-6.8-7.5-9.7c-2.9-2.9-6.2-5.4-9.7-7.5c-3.5-2-7.3-3.6-11.3-4.7
							c-3.9-1-8-1.6-12.2-1.6c-4.2,0-8.3,0.6-12.2,1.6c-4,1.1-7.8,2.7-11.3,4.7c-3.6,2.1-6.8,4.6-9.7,7.5c-2.9,2.9-5.4,6.2-7.5,9.7
							c-2,3.5-3.6,7.3-4.7,11.3c-1,3.9-1.6,8-1.6,12.2h8.2c0-3.5,0.5-6.9,1.3-10.1c0.9-3.3,2.2-6.5,3.9-9.4c1.7-2.9,3.8-5.7,6.2-8.1
							c2.4-2.4,5.1-4.5,8.1-6.2c2.9-1.7,6.1-3,9.4-3.9c3.2-0.9,6.6-1.3,10.1-1.3s6.9,0.5,10.1,1.3c3.3,0.9,6.5,2.2,9.4,3.9
							c2.9,1.7,5.7,3.8,8.1,6.2c2.4,2.4,4.5,5.1,6.2,8.1c1.7,2.9,3,6.1,3.9,9.4l7.9-2.1C327,53.3,325.4,49.5,323.4,46z"/>
						<path class="st1" d="M343.9,53.1c-1.4-5.4-3.6-10.5-6.3-15.3c-2.8-4.8-6.2-9.2-10.1-13.1c-3.9-3.9-8.3-7.3-13.1-10.1
							c-4.7-2.7-9.9-4.9-15.3-6.3c-5.2-1.4-10.7-2.1-16.4-2.1c-5.7,0-11.2,0.8-16.4,2.1c-5.4,1.4-10.5,3.6-15.3,6.3
							c-4.8,2.8-9.2,6.2-13.1,10.1c-3.9,3.9-7.3,8.3-10.1,13.1l7.1,4.1c2.4-4.2,5.4-8,8.8-11.4c3.4-3.4,7.3-6.3,11.4-8.8
							c4.1-2.4,8.6-4.3,13.3-5.5c4.6-1.2,9.3-1.9,14.3-1.9s9.7,0.7,14.3,1.9c4.7,1.3,9.2,3.1,13.3,5.5c4.2,2.4,8,5.4,11.4,8.8
							c3.4,3.4,6.3,7.3,8.8,11.4c2.4,4.1,4.3,8.6,5.5,13.3c1.2,4.6,1.9,9.3,1.9,14.3c0,4.9-0.7,9.7-1.9,14.3l7.9,2.1
							c1.4-5.2,2.1-10.7,2.1-16.4C346.1,63.9,345.3,58.4,343.9,53.1z"/>
					</g>
				</g>
				<circle class="st0" cx="282.7" cy="69.5" r="18.4"/>
			</g>
		</g>
	</g>
	<g>
		<path class="st0" d="M355.3,142.4v-38.2h8.1v38.2H355.3z"/>
		<path class="st0" d="M378.6,129v13.4h-7.7v-26.7h7.6v1.9c1.5-1.4,3.6-2.5,6.3-2.5c6.5,0,10.8,4.3,10.8,11.8v15.5H388v-14.9
			c0-2.8-1.3-5.2-4.4-5.2C379.9,122.2,378.6,124.9,378.6,129z"/>
		<path class="st0" d="M412.7,142.5c-5.8,0-9.2-3.4-9.2-9.3v-10.4H399v-7.1h4.5v-3.9l7.7-6.5v10.5h6.7v7.1h-6.7v9.3
			c0,2.6,1.7,3.2,3.3,3.2c1.8,0,3.3-0.7,3.3-0.7v7C417.8,141.6,415.7,142.5,412.7,142.5z"/>
		<path class="st0" d="M448.6,131.1h-18.9c0.4,2.7,2.7,4.8,6,4.8c2.2,0,3.5-0.9,4.4-2.3h8.3c-1.8,5.8-5.9,9.4-12.6,9.4
			c-7.7,0-14-5.4-14-13.8c0-8.1,5.7-14.2,13.5-14.2c8.8,0,13.2,6.9,13.2,14.1C448.7,129.8,448.6,131.1,448.6,131.1z M435.5,121.8
			c-2.9,0-4.9,1.8-5.4,4.1h10.4C440.3,123.6,438.3,121.8,435.5,121.8z"/>
		<path class="st0" d="M471.6,117.2v7.6c0,0-2-2.1-5.1-2.1c-2.3,0-5,1.3-5,5.2v14.4h-7.7v-26.7h7.6v2.2c-0.1,0,1.5-2.6,5.3-2.6
			C470.1,115.3,471.6,117.2,471.6,117.2z"/>
		<path class="st0" d="M483.6,129v13.4h-7.7v-26.7h7.6v1.9c1.5-1.4,3.6-2.5,6.3-2.5c6.5,0,10.8,4.3,10.8,11.8v15.5h-7.7v-14.9
			c0-2.8-1.3-5.2-4.4-5.2C484.8,122.2,483.6,124.9,483.6,129z"/>
		<path class="st0" d="M522.9,139.7c-1.7,2.1-4.3,3.3-7.6,3.3c-5.3,0-9.6-3.3-9.6-8.4c0-5.1,4.3-7.6,10.4-7.9
			c4.6-0.3,6.1-0.8,6.1-2.3c0-1.5-1.4-2.6-3.9-2.6c-3.1,0-4.4,1.5-4.5,3.2h-7.5c0.4-5.8,4.7-9.9,12-9.9c7.1,0,11.7,3.9,11.7,11.1
			v16.2h-6.4L522.9,139.7z M513.5,134.2c0,1.5,1.4,2.5,3.5,2.5c2.9,0,5.3-1.6,5.3-5v-1c0,0-1.4,0.7-4.4,0.8
			C514.7,131.7,513.5,132.7,513.5,134.2z"/>
		<path class="st0" d="M547.1,142.5c-5.8,0-9.2-3.4-9.2-9.3v-10.4h-4.5v-7.1h4.5v-3.9l7.7-6.5v10.5h6.7v7.1h-6.7v9.3
			c0,2.6,1.7,3.2,3.3,3.2c1.8,0,3.3-0.7,3.3-0.7v7C552.2,141.6,550.1,142.5,547.1,142.5z"/>
		<path class="st0" d="M557.5,108.1c0-2.5,2-4.5,4.5-4.5c2.5,0,4.5,2,4.5,4.5c0,2.5-2,4.5-4.5,4.5
			C559.5,112.6,557.5,110.5,557.5,108.1z M558.1,142.4v-26.7h7.7v26.7H558.1z"/>
		<path class="st0" d="M571.5,129c0-8,6.2-14,14.2-14c8.1,0,14.2,6,14.2,14s-6.2,14-14.2,14C577.6,143,571.5,137,571.5,129z
			 M579.4,129c0,3.9,2.7,6.8,6.3,6.8c3.7,0,6.3-2.8,6.3-6.8c0-3.9-2.7-6.8-6.3-6.8C582.1,122.3,579.4,125.1,579.4,129z"/>
		<path class="st0" d="M613,129v13.4h-7.7v-26.7h7.6v1.9c1.5-1.4,3.6-2.5,6.3-2.5c6.5,0,10.8,4.3,10.8,11.8v15.5h-7.7v-14.9
			c0-2.8-1.3-5.2-4.4-5.2C614.3,122.2,613,124.9,613,129z"/>
		<path class="st0" d="M652.4,139.7c-1.7,2.1-4.3,3.3-7.6,3.3c-5.3,0-9.6-3.3-9.6-8.4c0-5.1,4.3-7.6,10.4-7.9
			c4.6-0.3,6.1-0.8,6.1-2.3c0-1.5-1.4-2.6-3.9-2.6c-3.1,0-4.4,1.5-4.5,3.2h-7.5c0.4-5.8,4.7-9.9,12-9.9c7.1,0,11.7,3.9,11.7,11.1
			v16.2h-6.4L652.4,139.7z M642.9,134.2c0,1.5,1.4,2.5,3.5,2.5c2.9,0,5.3-1.6,5.3-5v-1c0,0-1.4,0.7-4.4,0.8
			C644.1,131.7,642.9,132.7,642.9,134.2z"/>
		<path class="st0" d="M665.9,142.4v-38.2h7.7v38.2H665.9z"/>
		<path class="st0" d="M715.5,104.2l14.9,38.2h-8.4l-3.1-7.5h-14.8l-3,7.5h-8.4l14.9-38.2H715.5z M711.6,115.2l-4.7,12.5h9.5
			L711.6,115.2z"/>
		<path class="st0" d="M734.1,108.1c0-2.5,2-4.5,4.5-4.5c2.5,0,4.5,2,4.5,4.5c0,2.5-2,4.5-4.5,4.5
			C736.1,112.6,734.1,110.5,734.1,108.1z M734.7,142.4v-26.7h7.7v26.7H734.7z"/>
		<path class="st0" d="M748.1,129c0-8.4,6.1-14,13.5-14c3.1,0,5.6,1.1,7,2.3v-13.2h7.7v38.2h-7.6v-1.9c-1.4,1.4-4.1,2.5-7.1,2.5
			C754.1,143,748.1,137.6,748.1,129z M768.6,129c0-4.1-2.7-7-6.3-7c-3.6,0-6.3,2.8-6.3,7c0,4.1,2.7,7,6.3,7
			C765.9,136,768.6,133.2,768.6,129z"/>
		<path class="st0" d="M352.8,169.6h30v7.5h-11v30.7h-8.1V177h-11V169.6z"/>
		<path class="st0" d="M401.7,182.6v7.6c0,0-2-2.1-5.1-2.1c-2.3,0-5,1.3-5,5.2v14.4H384v-26.7h7.6v2.2c-0.1,0,1.5-2.6,5.3-2.6
			C400.2,180.7,401.7,182.6,401.7,182.6z"/>
		<path class="st0" d="M422.5,205c-1.7,2.1-4.3,3.3-7.6,3.3c-5.3,0-9.6-3.3-9.6-8.4c0-5.1,4.3-7.6,10.4-7.9c4.6-0.3,6.1-0.8,6.1-2.3
			c0-1.5-1.4-2.6-3.9-2.6c-3.1,0-4.4,1.5-4.5,3.2h-7.5c0.4-5.8,4.7-9.9,12-9.9c7.1,0,11.7,3.9,11.7,11.1v16.2h-6.4L422.5,205z
			 M413,199.6c0,1.5,1.4,2.5,3.5,2.5c2.9,0,5.3-1.6,5.3-5v-1c0,0-1.4,0.7-4.4,0.8C414.3,197.1,413,198.1,413,199.6z"/>
		<path class="st0" d="M443.8,194.4v13.4H436v-26.7h7.6v1.9c1.5-1.4,3.6-2.5,6.3-2.5c6.5,0,10.8,4.3,10.8,11.8v15.5h-7.7v-14.9
			c0-2.8-1.3-5.2-4.4-5.2C445,187.6,443.8,190.3,443.8,194.4z"/>
		<path class="st0" d="M481.8,200.1c0-0.8-0.5-1.5-2.6-1.9l-4-0.8c-6.1-1.2-8.6-4.1-8.6-8.1c0-4.7,3.5-8.9,10.9-8.9
			c7.4,0,10.7,4.1,11.3,8.8h-7.4c-0.4-1.5-1.7-2.3-4-2.3c-2.2,0-3.4,0.8-3.4,1.9c0,0.8,0.7,1.3,2.7,1.7l4,0.8
			c5.7,1.1,8.6,3.8,8.6,8.4c0,5.2-3.8,8.8-11.2,8.8c-7.6,0-11.7-3.6-12.5-9.2h7.8c0.4,1.9,1.8,2.8,4.7,2.8
			C480.6,202,481.8,201.3,481.8,200.1z"/>
		<path class="st0" d="M522.5,194.4c0,8.4-6.1,14-13.5,14c-3.1,0-5.6-1.1-7-2.3v12.3h-7.7v-37.3h7.6v1.9c1.4-1.4,4.1-2.6,7.1-2.6
			C516.5,180.4,522.5,185.8,522.5,194.4z M502,194.4c0,4.1,2.7,7,6.3,7c3.6,0,6.3-2.8,6.3-7c0-4.1-2.7-7-6.3-7
			C504.7,187.4,502,190.3,502,194.4z"/>
		<path class="st0" d="M543.8,205c-1.7,2.1-4.3,3.3-7.6,3.3c-5.3,0-9.6-3.3-9.6-8.4c0-5.1,4.3-7.6,10.4-7.9c4.6-0.3,6.1-0.8,6.1-2.3
			c0-1.5-1.4-2.6-3.9-2.6c-3.1,0-4.4,1.5-4.5,3.2h-7.5c0.4-5.8,4.7-9.9,12-9.9c7.1,0,11.7,3.9,11.7,11.1v16.2h-6.4L543.8,205z
			 M534.3,199.6c0,1.5,1.4,2.5,3.5,2.5c2.9,0,5.3-1.6,5.3-5v-1c0,0-1.4,0.7-4.4,0.8C535.6,197.1,534.3,198.1,534.3,199.6z"/>
		<path class="st0" d="M575.1,182.6v7.6c0,0-2-2.1-5.1-2.1c-2.3,0-5,1.3-5,5.2v14.4h-7.7v-26.7h7.6v2.2c-0.1,0,1.5-2.6,5.3-2.6
			C573.6,180.7,575.1,182.6,575.1,182.6z"/>
		<path class="st0" d="M604.8,196.5h-18.9c0.4,2.7,2.7,4.8,6,4.8c2.2,0,3.5-0.9,4.4-2.3h8.3c-1.8,5.8-5.9,9.4-12.6,9.4
			c-7.7,0-14-5.4-14-13.8c0-8.1,5.7-14.2,13.5-14.2c8.8,0,13.2,6.9,13.2,14.1C604.8,195.2,604.8,196.5,604.8,196.5z M591.7,187.2
			c-2.9,0-4.9,1.8-5.4,4.1h10.4C596.5,189,594.5,187.2,591.7,187.2z"/>
		<path class="st0" d="M617.8,194.4v13.4H610v-26.7h7.6v1.9c1.5-1.4,3.6-2.5,6.3-2.5c6.5,0,10.8,4.3,10.8,11.8v15.5h-7.7v-14.9
			c0-2.8-1.3-5.2-4.4-5.2C619,187.6,617.8,190.3,617.8,194.4z"/>
		<path class="st0" d="M658.5,197.4h8.5c-1.3,6.5-6.2,11-13.4,11c-8.1,0-14.1-5.9-14.1-14c0-8,6-14,14.1-14c7,0,11.9,4.4,12.9,10.7
			h-8.5c-0.6-2-2.3-3.4-4.7-3.4c-3.3,0-5.9,2.8-5.9,6.7c0,3.9,2.6,6.7,6,6.7C656,201.1,657.9,199.7,658.5,197.4z"/>
		<path class="st0" d="M676.5,218.6c-3.5,0-5.2-0.9-5.2-0.9v-7.1c0,0,1.6,0.8,3.3,0.8c1.7,0,4-0.7,4.6-3.7l-10.4-26.7h8.6l6.1,16.6
			l6.2-16.6h8.3L687,208.2C684.1,215.3,681.8,218.6,676.5,218.6z"/>
		<path class="st0" d="M717.4,207.8v-38.2h8.1v38.2H717.4z"/>
		<path class="st0" d="M740.7,194.4v13.4h-7.7v-26.7h7.6v1.9c1.5-1.4,3.6-2.5,6.3-2.5c6.5,0,10.8,4.3,10.8,11.8v15.5H750v-14.9
			c0-2.8-1.3-5.2-4.4-5.2C741.9,187.6,740.7,190.3,740.7,194.4z"/>
		<path class="st0" d="M763.7,173.5c0-2.5,2-4.5,4.5-4.5c2.5,0,4.5,2,4.5,4.5c0,2.5-2,4.5-4.5,4.5
			C765.7,178,763.7,175.9,763.7,173.5z M764.3,207.8v-26.7h7.7v26.7H764.3z"/>
		<path class="st0" d="M789.9,207.9c-5.8,0-9.2-3.4-9.2-9.3v-10.4h-4.5v-7.1h4.5v-3.9l7.7-6.5v10.5h6.7v7.1h-6.7v9.3
			c0,2.6,1.7,3.2,3.3,3.2c1.8,0,3.3-0.7,3.3-0.7v7C795,207,792.9,207.9,789.9,207.9z"/>
		<path class="st0" d="M800.3,173.5c0-2.5,2-4.5,4.5-4.5c2.5,0,4.5,2,4.5,4.5c0,2.5-2,4.5-4.5,4.5
			C802.3,178,800.3,175.9,800.3,173.5z M800.9,207.8v-26.7h7.7v26.7H800.9z"/>
		<path class="st0" d="M831.7,205c-1.7,2.1-4.3,3.3-7.6,3.3c-5.3,0-9.6-3.3-9.6-8.4c0-5.1,4.3-7.6,10.4-7.9c4.6-0.3,6.1-0.8,6.1-2.3
			c0-1.5-1.4-2.6-3.9-2.6c-3.1,0-4.4,1.5-4.5,3.2h-7.5c0.4-5.8,4.7-9.9,12-9.9c7.1,0,11.7,3.9,11.7,11.1v16.2h-6.4L831.7,205z
			 M822.3,199.6c0,1.5,1.4,2.5,3.5,2.5c2.9,0,5.3-1.6,5.3-5v-1c0,0-1.4,0.7-4.4,0.8C823.5,197.1,822.3,198.1,822.3,199.6z"/>
		<path class="st0" d="M855.9,207.9c-5.8,0-9.2-3.4-9.2-9.3v-10.4h-4.5v-7.1h4.5v-3.9l7.7-6.5v10.5h6.7v7.1h-6.7v9.3
			c0,2.6,1.7,3.2,3.3,3.2c1.8,0,3.3-0.7,3.3-0.7v7C861,207,858.9,207.9,855.9,207.9z"/>
		<path class="st0" d="M866.3,173.5c0-2.5,2-4.5,4.5-4.5c2.5,0,4.5,2,4.5,4.5c0,2.5-2,4.5-4.5,4.5
			C868.3,178,866.3,175.9,866.3,173.5z M866.9,207.8v-26.7h7.7v26.7H866.9z"/>
		<path class="st0" d="M905.6,181.1l-9.5,26.7h-8l-9.5-26.7h8.2l5.2,16.5l5.2-16.5H905.6z"/>
		<path class="st0" d="M933.8,196.5h-18.9c0.4,2.7,2.7,4.8,6,4.8c2.2,0,3.5-0.9,4.4-2.3h8.3c-1.8,5.8-5.9,9.4-12.6,9.4
			c-7.7,0-14-5.4-14-13.8c0-8.1,5.7-14.2,13.5-14.2c8.8,0,13.2,6.9,13.2,14.1C933.8,195.2,933.8,196.5,933.8,196.5z M920.7,187.2
			c-2.9,0-4.9,1.8-5.4,4.1h10.4C925.5,189,923.5,187.2,920.7,187.2z"/>
	</g>
</g>
</svg>
