<svg xmlns="http://www.w3.org/2000/svg" viewBox="0 0 636.1 211" enable-background="new 0 0 636.1 211"><style type="text/css">.st0{fill:#FFFFFF;} .st1{opacity:0.25;} .st2{display:none;} .st3{display:inline;} .st4{opacity:0.2;fill:#E30613;} .st5{display:inline;opacity:0.2;fill:none;stroke:#E30613;stroke-width:0.75;stroke-miterlimit:10;}</style><g id="Layer_1"><path class="st0" d="M355.5 125.4v-24.1h5.1v24.1h-5.1zM370.2 117v8.4h-4.9v-16.8h4.8v1.2c.9-.9 2.3-1.6 4-1.6 4.1 0 6.8 2.7 6.8 7.5v9.8h-4.9v-9.5c0-1.8-.8-3.3-2.8-3.3-2.2 0-3 1.7-3 4.3zM391.6 125.4c-3.7 0-5.8-2.1-5.8-5.8v-6.6h-2.8v-4.5h2.8v-2.5l4.9-4.1v6.6h4.2v4.5h-4.2v5.9c0 1.6 1.1 2 2.1 2 1.1 0 2.1-.4 2.1-.4v4.4c-.1 0-1.4.5-3.3.5zM414.3 118.3h-11.9c.3 1.7 1.7 3 3.8 3 1.4 0 2.2-.6 2.7-1.4h5.3c-1.1 3.6-3.7 5.9-7.9 5.9-4.9 0-8.8-3.4-8.8-8.7 0-5.1 3.6-8.9 8.5-8.9 5.5 0 8.3 4.4 8.3 8.9v1.2zm-8.3-5.9c-1.9 0-3.1 1.1-3.4 2.6h6.5c0-1.5-1.3-2.6-3.1-2.6zM428.8 109.5v4.8s-1.3-1.3-3.2-1.3c-1.5 0-3.1.8-3.1 3.3v9.1h-4.9v-16.8h4.8v1.4s1-1.6 3.4-1.6c2-.1 3 1.1 3 1.1zM436.3 117v8.4h-4.9v-16.8h4.8v1.2c.9-.9 2.3-1.6 4-1.6 4.1 0 6.8 2.7 6.8 7.5v9.8h-4.9v-9.5c0-1.8-.8-3.3-2.8-3.3-2.2 0-3 1.7-3 4.3zM461.1 123.7c-1.1 1.3-2.7 2.1-4.8 2.1-3.4 0-6.1-2.1-6.1-5.3 0-3.2 2.7-4.8 6.5-5 2.9-.2 3.8-.5 3.8-1.5s-.9-1.6-2.5-1.6c-1.9 0-2.7 1-2.9 2h-4.7c.2-3.7 3-6.2 7.6-6.2 4.5 0 7.4 2.4 7.4 7v10.2h-4l-.3-1.7zm-5.9-3.5c0 1 .9 1.5 2.2 1.5 1.9 0 3.3-1 3.3-3.1v-.6s-.9.4-2.7.5c-2.1.1-2.8.8-2.8 1.7zM476.4 125.4c-3.7 0-5.8-2.1-5.8-5.8v-6.6h-2.8v-4.5h2.8v-2.5l4.9-4.1v6.6h4.2v4.5h-4.2v5.9c0 1.6 1.1 2 2.1 2 1.1 0 2.1-.4 2.1-.4v4.4c-.1 0-1.4.5-3.3.5zM482.9 103.8c0-1.6 1.2-2.9 2.8-2.9 1.6 0 2.9 1.3 2.9 2.9 0 1.5-1.3 2.8-2.9 2.8-1.5 0-2.8-1.3-2.8-2.8zm.4 21.6v-16.8h4.9v16.8h-4.9zM491.7 117c0-5.1 3.9-8.8 9-8.8s9 3.8 9 8.8c0 5-3.9 8.8-9 8.8-5.1-.1-9-3.8-9-8.8zm5 0c0 2.5 1.7 4.3 4 4.3s4-1.8 4-4.3-1.7-4.3-4-4.3-4 1.8-4 4.3zM517.9 117v8.4h-4.9v-16.8h4.8v1.2c.9-.9 2.3-1.6 4-1.6 4.1 0 6.8 2.7 6.8 7.5v9.8h-4.9v-9.5c0-1.8-.8-3.3-2.8-3.3-2.2 0-3 1.7-3 4.3zM542.7 123.7c-1.1 1.3-2.7 2.1-4.8 2.1-3.4 0-6.1-2.1-6.1-5.3 0-3.2 2.7-4.8 6.5-5 2.9-.2 3.8-.5 3.8-1.5s-.9-1.6-2.5-1.6c-1.9 0-2.7 1-2.9 2h-4.7c.2-3.7 3-6.2 7.6-6.2 4.5 0 7.4 2.4 7.4 7v10.2h-4l-.3-1.7zm-6-3.5c0 1 .9 1.5 2.2 1.5 1.9 0 3.3-1 3.3-3.1v-.6s-.9.4-2.7.5c-2 .1-2.8.8-2.8 1.7zM551.2 125.4v-24.1h4.9v24.1h-4.9zM367.6 142.5l9.4 24.1h-5.3l-1.9-4.7h-9.3l-1.9 4.7h-5.3l9.4-24.1h4.9zm-2.5 7l-3 7.9h6l-3-7.9zM379.3 145c0-1.6 1.2-2.9 2.8-2.9 1.6 0 2.9 1.3 2.9 2.9 0 1.5-1.3 2.8-2.9 2.8-1.5 0-2.8-1.3-2.8-2.8zm.4 21.6v-16.8h4.9v16.8h-4.9zM388.1 158.2c0-5.3 3.8-8.8 8.5-8.8 1.9 0 3.5.7 4.4 1.5v-8.3h4.9v24.1h-4.8v-1.2c-.9.9-2.6 1.6-4.5 1.6-4.7-.1-8.5-3.5-8.5-8.9zm13 0c0-2.6-1.7-4.4-4-4.4s-4 1.8-4 4.4c0 2.6 1.7 4.4 4 4.4s4-1.8 4-4.4zM418.6 142.5h18.9v4.7h-6.9v19.4h-5.1v-19.4h-6.9v-4.7zM449.5 150.7v4.8s-1.3-1.3-3.2-1.3c-1.5 0-3.1.8-3.1 3.3v9.1h-4.9v-16.8h4.8v1.4s1-1.6 3.4-1.6c2-.1 3 1.1 3 1.1zM462.5 164.9c-1.1 1.3-2.7 2.1-4.8 2.1-3.4 0-6.1-2.1-6.1-5.3 0-3.2 2.7-4.8 6.5-5 2.9-.2 3.8-.5 3.8-1.5s-.9-1.6-2.5-1.6c-1.9 0-2.7 1-2.9 2h-4.5c.2-3.7 3-6.2 7.6-6.2 4.5 0 7.4 2.4 7.4 7v10.2h-4l-.5-1.7zm-5.9-3.5c0 1 .9 1.5 2.2 1.5 1.9 0 3.3-1 3.3-3.1v-.6s-.9.4-2.7.5c-2 .2-2.8.8-2.8 1.7zM475.9 158.2v8.4h-4.9v-16.8h4.8v1.2c.9-.9 2.3-1.6 4-1.6 4.1 0 6.8 2.7 6.8 7.5v9.8h-4.9v-9.4c0-1.8-.8-3.3-2.8-3.3-2.2-.1-3 1.6-3 4.2zM499.9 161.8c0-.5-.3-.9-1.6-1.2l-2.5-.5c-3.8-.8-5.4-2.6-5.4-5.1 0-3 2.2-5.6 6.9-5.6s6.8 2.6 7.1 5.5h-4.6c-.3-.9-1.1-1.5-2.5-1.5s-2.1.5-2.1 1.2c0 .5.4.8 1.7 1.1l2.5.5c3.6.7 5.4 2.4 5.4 5.3 0 3.3-2.4 5.5-7.1 5.5-4.8 0-7.4-2.3-7.9-5.8h4.9c.3 1.2 1.1 1.8 3 1.8 1.5 0 2.2-.5 2.2-1.2zM525.6 158.2c0 5.3-3.8 8.8-8.5 8.8-1.9 0-3.5-.7-4.4-1.4v7.7h-4.9v-23.5h4.8v1.2c.9-.9 2.6-1.6 4.5-1.6 4.7 0 8.5 3.3 8.5 8.8zm-13 0c0 2.6 1.7 4.4 4 4.4s4-1.8 4-4.4c0-2.6-1.7-4.4-4-4.4s-4 1.8-4 4.4zM539 164.9c-1.1 1.3-2.7 2.1-4.8 2.1-3.4 0-6.1-2.1-6.1-5.3 0-3.2 2.7-4.8 6.5-5 2.9-.2 3.8-.5 3.8-1.5s-.9-1.6-2.5-1.6c-1.9 0-2.7 1-2.9 2h-4.7c.2-3.7 3-6.2 7.6-6.2 4.5 0 7.4 2.4 7.4 7v10.2h-4l-.3-1.7zm-6-3.5c0 1 .9 1.5 2.2 1.5 1.9 0 3.3-1 3.3-3.1v-.6s-.9.4-2.7.5c-2 .2-2.8.8-2.8 1.7zM558.7 150.7v4.8s-1.3-1.3-3.2-1.3c-1.5 0-3.1.8-3.1 3.3v9.1h-4.9v-16.8h4.8v1.4s1-1.6 3.4-1.6c2.1-.1 3 1.1 3 1.1zM577.5 159.5h-11.9c.3 1.7 1.7 3 3.8 3 1.4 0 2.2-.6 2.7-1.4h5.3c-1.1 3.6-3.7 5.9-7.9 5.9-4.9 0-8.8-3.4-8.8-8.7 0-5.1 3.6-8.9 8.5-8.9 5.5 0 8.3 4.4 8.3 8.9v1.2zm-8.3-5.9c-1.9 0-3.1 1.1-3.4 2.6h6.5c-.1-1.5-1.3-2.6-3.1-2.6zM585.6 158.2v8.4h-4.9v-16.8h4.8v1.2c.9-.9 2.3-1.6 4-1.6 4.1 0 6.8 2.7 6.8 7.5v9.8h-4.9v-9.4c0-1.8-.8-3.3-2.8-3.3-2.2-.1-3 1.6-3 4.2zM611.3 160h5.4c-.8 4.1-3.9 6.9-8.4 6.9-5.1 0-8.9-3.7-8.9-8.8 0-5.1 3.8-8.8 8.9-8.8 4.4 0 7.5 2.7 8.1 6.7h-5.4c-.4-1.3-1.5-2.1-3-2.1-2.1 0-3.7 1.8-3.7 4.2 0 2.5 1.6 4.2 3.8 4.2 1.6.1 2.8-.8 3.2-2.3zM622.7 173.4c-2.2 0-3.3-.6-3.3-.6v-4.5s1 .5 2.1.5 2.5-.4 2.9-2.3l-6.6-16.8h5.4l3.8 10.4 3.9-10.4h5.2l-6.8 17.1c-1.8 4.6-3.3 6.6-6.6 6.6zM355.5 207.8v-24.1h5.1v24.1h-5.1zM370.2 199.4v8.4h-4.9v-16.8h4.8v1.2c.9-.9 2.3-1.6 4-1.6 4.1 0 6.8 2.7 6.8 7.5v9.8h-4.9v-9.4c0-1.8-.8-3.3-2.8-3.3-2.2-.1-3 1.6-3 4.2zM384.7 186.2c0-1.6 1.2-2.9 2.8-2.9 1.6 0 2.9 1.3 2.9 2.9 0 1.5-1.3 2.8-2.9 2.8-1.6 0-2.8-1.2-2.8-2.8zm.4 21.6v-16.8h4.9v16.8h-4.9zM401.2 207.9c-3.7 0-5.8-2.1-5.8-5.8v-6.6h-2.8v-4.5h2.8v-2.5l4.9-4.1v6.6h4.2v4.5h-4.2v5.9c0 1.6 1.1 2 2.1 2 1.1 0 2.1-.4 2.1-.4v4.4c-.1-.1-1.4.5-3.3.5zM407.7 186.2c0-1.6 1.2-2.9 2.8-2.9 1.6 0 2.9 1.3 2.9 2.9 0 1.5-1.3 2.8-2.9 2.8-1.5 0-2.8-1.2-2.8-2.8zm.4 21.6v-16.8h4.9v16.8h-4.9zM427.6 206.1c-1.1 1.3-2.7 2.1-4.8 2.1-3.4 0-6.1-2.1-6.1-5.3 0-3.2 2.7-4.8 6.5-5 2.9-.2 3.8-.5 3.8-1.5s-.9-1.6-2.5-1.6c-1.9 0-2.7 1-2.9 2h-4.7c.2-3.7 3-6.2 7.6-6.2 4.5 0 7.4 2.4 7.4 7v10.2h-4l-.3-1.7zm-6-3.4c0 1 .9 1.5 2.2 1.5 1.9 0 3.3-1 3.3-3.1v-.6s-.9.4-2.7.5c-2 .1-2.8.7-2.8 1.7zM442.8 207.9c-3.7 0-5.8-2.1-5.8-5.8v-6.6h-2.8v-4.5h2.8v-2.5l4.9-4.1v6.6h4.2v4.5h-4.2v5.9c0 1.6 1.1 2 2.1 2 1.1 0 2.1-.4 2.1-.4v4.4c-.1-.1-1.4.5-3.3.5zM449.4 186.2c0-1.6 1.2-2.9 2.8-2.9 1.6 0 2.9 1.3 2.9 2.9 0 1.5-1.3 2.8-2.9 2.8-1.6 0-2.8-1.2-2.8-2.8zm.4 21.6v-16.8h4.9v16.8h-4.9zM474.2 191l-6 16.8h-5l-6-16.8h5.2l3.3 10.4 3.3-10.4h5.2zM491.9 200.7h-11.9c.3 1.7 1.7 3 3.8 3 1.4 0 2.2-.6 2.7-1.4h5.3c-1.1 3.6-3.7 5.9-7.9 5.9-4.9 0-8.8-3.4-8.8-8.7 0-5.1 3.6-8.9 8.5-8.9 5.5 0 8.3 4.4 8.3 8.9v1.2zm-8.3-5.8c-1.9 0-3.1 1.1-3.4 2.6h6.5c0-1.5-1.3-2.6-3.1-2.6zM2.6 207.9v-106.6h30.8v106.6h-30.8zM126.2 197.6c-7 8.5-17.1 13.3-30.4 13.3-21.4 0-38.7-13.3-38.7-33.9 0-20.3 17.3-30.4 41.6-31.7 18.6-1.1 24.5-3.1 24.5-9.4 0-6.1-5.7-10.3-15.7-10.3-12.2 0-17.5 6.1-18.2 12.7h-30c1.5-23.4 19-39.6 48.3-39.6 28.6 0 47 15.5 47 44.6v65.2h-25.6l-2.8-10.9zm-38.1-21.9c0 6.1 5.5 9.8 14.2 9.8 11.8 0 21.2-6.6 21.2-19.9v-3.9s-5.7 2.6-17.5 3.3c-12.8.7-17.9 4.8-17.9 10.7zM223.3 209c-23.4 0-37-13.6-37-37.2v-41.8h-17.9v-28.6h17.9v-15.8l31.1-26.2v42h26.9v28.6h-26.9v37.4c0 10.3 6.8 12.7 13.1 12.7 7.2 0 13.1-2.8 13.1-2.8v28.2s-8.3 3.5-20.3 3.5zM0 69.3c0-10.1 7.9-18.2 17.9-18.2s18.2 8.1 18.2 18.2c0 9.8-8.1 17.9-18.2 17.9s-17.9-8-17.9-17.9zM267.2 207.9v-106.6h30.8v106.6h-30.8zM338.3 69.6c0-4.9-.7-9.7-1.9-14.3-1.3-4.7-3.1-9.2-5.5-13.3-2.4-4.2-5.4-8-8.8-11.4-3.4-3.4-7.3-6.3-11.4-8.8-4.1-2.4-8.6-4.3-13.3-5.5-4.6-1.2-9.4-1.9-14.3-1.9s-9.7.7-14.3 1.9c-4.7 1.3-9.2 3.1-13.3 5.5-4.2 2.4-8 5.4-11.5 8.8-3.4 3.4-6.4 7.3-8.8 11.4-2.4 4.1-4.3 8.6-5.5 13.3l7.9 2.1c1.1-4 2.7-7.8 4.7-11.4 2.1-3.6 4.6-6.9 7.5-9.7 2.9-2.9 6.2-5.4 9.8-7.5 3.5-2 7.3-3.6 11.4-4.7 3.9-1 8-1.6 12.2-1.6 4.2 0 8.3.6 12.2 1.6 4 1.1 7.8 2.7 11.3 4.7 3.6 2.1 6.9 4.6 9.7 7.5 2.9 2.9 5.4 6.2 7.5 9.7 2 3.5 3.6 7.3 4.7 11.3 1 3.9 1.6 8 1.6 12.2 0 4.2-.6 8.3-1.6 12.1-1.1 4-2.7 7.8-4.7 11.4l7.1 4.1c2.4-4.1 4.3-8.6 5.5-13.3 1.1-4.5 1.8-9.3 1.8-14.2zM352.6 69.6c0-6.2-.8-12.3-2.4-18-1.6-5.9-3.9-11.6-7-16.8-3.1-5.3-6.8-10.1-11.1-14.4-4.3-4.3-9.1-8-14.4-11.1-5.2-3-10.8-5.4-16.8-7-5.6-1.5-11.7-2.3-17.9-2.3-6.2 0-12.2.8-18 2.4-5.9 1.6-11.6 3.9-16.8 6.9-5.3 3.1-10.1 6.8-14.4 11.1l4.3 4.3c3.9-3.9 8.3-7.3 13.1-10.1 4.7-2.7 9.9-4.9 15.3-6.3 5.2-1.4 10.7-2.1 16.4-2.1 5.7 0 11.2.8 16.4 2.2 5.4 1.4 10.6 3.6 15.3 6.3 4.8 2.8 9.2 6.2 13.1 10.1 3.9 3.9 7.3 8.3 10.1 13.1 2.7 4.7 4.9 9.9 6.3 15.3 1.4 5.2 2.2 10.7 2.2 16.4 0 5.7-.7 11.2-2.1 16.4-1.4 5.4-3.6 10.6-6.3 15.3-2.8 4.8-6.2 9.2-10.1 13.1l4.3 4.3c4.3-4.3 8-9.1 11.1-14.4 3-5.2 5.4-10.8 6.9-16.8 1.7-5.6 2.5-11.7 2.5-17.9zM320.6 59.5c-.9-3.3-2.2-6.5-3.9-9.4-1.7-2.9-3.8-5.7-6.2-8-2.4-2.4-5.1-4.5-8.1-6.2-2.9-1.7-6.1-3-9.4-3.9-3.2-.9-6.6-1.3-10.1-1.3s-6.8.5-10 1.3c-3.3.9-6.5 2.2-9.4 3.9-3 1.7-5.7 3.8-8.1 6.2-2.4 2.4-4.5 5.1-6.2 8.1-1.7 2.9-3 6.1-3.9 9.4-.9 3.2-1.3 6.6-1.3 10.1s.5 6.8 1.3 10c.9 3.3 2.2 6.5 3.9 9.4l10.6-6.1c-1.2-2-2.1-4.2-2.7-6.4-.6-2.2-.9-4.5-.9-6.9 0-2.4.3-4.7.9-6.9.6-2.3 1.5-4.4 2.7-6.4 1.2-2 2.6-3.9 4.2-5.5s3.5-3.1 5.5-4.2 4.1-2 6.4-2.7c2.2-.6 4.5-.9 6.9-.9 2.4 0 4.7.3 6.9.9 2.3.6 4.4 1.5 6.4 2.7 2 1.2 3.9 2.6 5.5 4.2s3.1 3.5 4.2 5.5c1.2 2 2.1 4.1 2.7 6.4.6 2.2.9 4.5.9 6.9h12.3c.2-3.6-.3-7-1.1-10.2z"/><g class="st1"><path class="st0" d="M308.7 62.7c-.6-2.3-1.5-4.4-2.7-6.4-1.2-2-2.6-3.9-4.2-5.5l-5.8 5.8c1.1 1.1 2.1 2.4 2.9 3.8.8 1.4 1.4 2.9 1.8 4.4.4 1.5.6 3.1.6 4.8s-.2 3.3-.6 4.8c-.4 1.6-1 3.1-1.8 4.4-.8 1.4-1.8 2.7-2.9 3.8-1.1 1.1-2.4 2.1-3.8 2.9-1.4.8-2.9 1.4-4.4 1.8-1.5.4-3.1.6-4.8.6s-3.3-.2-4.8-.6c-1.6-.4-3.1-1-4.4-1.8l-4.1 7.1c2 1.2 4.1 2.1 6.4 2.7 2.2.6 4.5.9 6.9.9 2.4 0 4.7-.3 6.9-.9 2.3-.6 4.4-1.5 6.4-2.7 2-1.2 3.9-2.6 5.5-4.2s3.1-3.5 4.2-5.5c1.2-2 2.1-4.1 2.7-6.4.6-2.2.9-4.5.9-6.9 0-2.4-.3-4.7-.9-6.9zM323.8 46.1c-2.1-3.6-4.6-6.9-7.5-9.8-2.9-2.9-6.2-5.4-9.8-7.5-3.5-2-7.3-3.6-11.4-4.7-3.9-1-8-1.6-12.2-1.6-4.2 0-8.3.6-12.2 1.6-4 1.1-7.8 2.7-11.4 4.7-3.6 2.1-6.9 4.6-9.8 7.5-2.9 2.9-5.4 6.2-7.5 9.8-2 3.5-3.6 7.3-4.7 11.4-1 3.9-1.6 8-1.6 12.2h8.2c0-3.5.5-6.9 1.3-10.1.9-3.3 2.2-6.5 3.9-9.4 1.7-3 3.8-5.7 6.2-8.1 2.4-2.4 5.1-4.5 8.1-6.2 2.9-1.7 6.1-3 9.4-3.9 3.2-.9 6.6-1.3 10.1-1.3s6.9.5 10.1 1.3c3.3.9 6.5 2.2 9.4 3.9 3 1.7 5.7 3.8 8.1 6.2 2.4 2.4 4.5 5.1 6.2 8.1 1.7 2.9 3 6.1 3.9 9.4l7.9-2.1c-1.1-4.1-2.7-7.9-4.7-11.4zM344.3 53.2c-1.4-5.4-3.6-10.6-6.3-15.3-2.8-4.8-6.2-9.2-10.1-13.1-3.9-3.9-8.3-7.3-13.1-10.1-4.7-2.7-9.9-4.9-15.3-6.3-5.2-1.4-10.7-2.2-16.4-2.2-5.7 0-11.2.8-16.4 2.2-5.4 1.4-10.6 3.6-15.3 6.3-4.8 2.8-9.2 6.2-13.1 10.1-3.9 3.9-7.3 8.3-10.1 13.1l7.1 4.1c2.4-4.2 5.4-8 8.8-11.5 3.4-3.4 7.3-6.4 11.5-8.8 4.1-2.4 8.6-4.3 13.3-5.5 4.6-1.2 9.4-1.9 14.3-1.9s9.7.7 14.3 1.9c4.7 1.3 9.2 3.1 13.3 5.5 4.2 2.4 8 5.4 11.5 8.8 3.4 3.4 6.4 7.3 8.8 11.5 2.4 4.1 4.3 8.6 5.5 13.3 1.2 4.6 1.9 9.4 1.9 14.3s-.7 9.7-1.9 14.3l7.9 2.1c1.4-5.2 2.2-10.7 2.2-16.4-.2-5.7-1-11.2-2.4-16.4z"/></g><circle class="st0" cx="283" cy="69.6" r="18.4"/></g><g id="Spacing" class="st2"><g class="st3"><circle class="st4" cx="316.4" cy="158" r="18.4"/><path class="st4" d="M334.9 158c0 10.2 8.3 18.4 18.4 18.4v-36.9c-10.2 0-18.4 8.3-18.4 18.5z"/></g><g class="st3"><circle class="st4" cx="654.5" cy="101.4" r="18.4"/><path class="st4" d="M673 101.4c0 10.2 8.3 18.4 18.4 18.4v-36.9c-10.2 0-18.4 8.3-18.4 18.5z"/></g><g class="st3"><circle class="st4" cx="-15.8" cy="101.4" r="18.4"/><path class="st4" d="M-34.2 101.4c0-10.2-8.3-18.4-18.4-18.4v36.9c10.1-.1 18.4-8.4 18.4-18.5z"/></g><g class="st3"><circle class="st4" cx="307.2" cy="-18.4" r="18.4"/><path class="st4" d="M307.2-36.9c10.2 0 18.4-8.3 18.4-18.4h-36.9c0 10.1 8.3 18.4 18.5 18.4z"/></g><g class="st3"><circle class="st4" cx="307.2" cy="226.3" r="18.4"/><path class="st4" d="M307.2 244.7c-10.2 0-18.4 8.3-18.4 18.4h36.9c-.1-10.1-8.3-18.4-18.5-18.4z"/></g><path class="st5" d="M-52.7-55.3h744.1v318.6h-744.1zM2.6 0h633.4v207.8h-633.4z"/></g></svg>