<?xml version="1.0" encoding="UTF-8"?>
<svg width="88px" height="88px" viewBox="0 0 88 88" version="1.1" xmlns="http://www.w3.org/2000/svg" xmlns:xlink="http://www.w3.org/1999/xlink">
    <!-- Generator: Sketch 64 (93537) - https://sketch.com -->
    <title>cross</title>
    <desc>Created with Sketch.</desc>
    <g id="Page-1" stroke="none" stroke-width="1" fill="none" fill-rule="evenodd">
        <g id="cross" fill="#B2A216" fill-rule="nonzero">
            <path d="M44,0 C19.7,0 0,19.699 0,44 C0,68.301 19.7,88 44,88 C68.3,88 88,68.301 88,44 C88,19.699 68.3,0 44,0 Z M44,80 C24.118,80 8,63.882 8,44 C8,24.118 24.118,8 44,8 C63.882,8 80,24.118 80,44 C80,63.882 63.882,80 44,80 Z" id="Shape"></path>
            <path d="M49.657,44 L58.142,35.515 C59.704,33.953 59.704,31.42 58.142,29.859 C56.58,28.297 54.046,28.297 52.484,29.859 L44,38.343 L35.515,29.859 C33.953,28.297 31.42,28.297 29.858,29.859 C28.296,31.421 28.296,33.955 29.858,35.515 L38.343,44 L29.858,52.485 C28.296,54.047 28.296,56.58 29.858,58.141 C31.42,59.703 33.953,59.703 35.515,58.141 L44,49.657 L52.484,58.141 C54.046,59.703 56.58,59.703 58.142,58.141 C59.704,56.579 59.704,54.045 58.142,52.485 L49.657,44 Z" id="Path"></path>
        </g>
    </g>
</svg>