<?xml version="1.0" encoding="UTF-8"?>
<svg viewBox="0 0 35 35" version="1.1" xmlns="http://www.w3.org/2000/svg" xmlns:xlink="http://www.w3.org/1999/xlink">
    <!-- Generator: Sketch 49 (51002) - http://www.bohemiancoding.com/sketch -->
    <title>social icon</title>
    <desc>Created with Sketch.</desc>
    <defs>
        <polygon id="path-1" points="0 0 17 0 17 17 0 17"></polygon>
    </defs>
    <g id="Page-1" stroke="none" stroke-width="1" fill="none" fill-rule="evenodd">
        <g id="News" transform="translate(-892.000000, -2678.000000)">
            <g id="Footer" transform="translate(0.000000, 2453.000000)">
                <g id="social-icon" transform="translate(892.000000, 225.000000)">
                    <circle id="Oval-2" fill="#FFFFFF" cx="17.5" cy="17.5" r="17.5"></circle>
                    <g id="Page-1" transform="translate(9.000000, 8.000000)">
                        <mask id="mask-2" fill="white">
                            <use xlink:href="#path-1"></use>
                        </mask>
                        <g id="Clip-2"></g>
                        <path d="M9.5625,17 L6.018,17 L6.018,8.31767109 C6.018,8.31767109 5.959775,6.16401941 5.959775,5.78243105 L9.446475,5.78243105 L9.5625,7.33396323 C10.268,6.24867211 11.3305,5.42645557 12.75,5.42645557 C15.232,5.42645557 17,7.23237998 17,10.4882533 L17,17 L13.4555,17 L13.4555,10.8529111 C13.4555,9.03830439 12.592325,8.31767109 11.529825,8.31767109 C10.467325,8.31767109 9.5625,9.03830439 9.5625,10.4882533 L9.5625,17 Z M0.357,17 L3.893,17 L3.893,5.78243105 L0.357,5.78243105 L0.357,17 Z M2.108425,3.97650664 L2.08335,3.97650664 C0.830025,3.97650664 0,3.09481614 0,1.98391216 C0,0.864759959 0.8466,0 2.141575,0 C3.419975,0 4.233425,0.864759959 4.25,1.98391216 C4.25,3.09481614 3.419975,3.97650664 2.108425,3.97650664 Z" id="Fill-1" fill="#0077B5" mask="url(#mask-2)"></path>
                    </g>
                </g>
            </g>
        </g>
    </g>
</svg>
