<?xml version="1.0" encoding="UTF-8"?>
<svg width="16px" height="16px" viewBox="0 0 16 16" version="1.1" xmlns="http://www.w3.org/2000/svg" xmlns:xlink="http://www.w3.org/1999/xlink">
    <!-- Generator: Sketch 58 (84663) - https://sketch.com -->
    <title>chevron-up</title>
    <desc>Created with Sketch.</desc>
    <defs>
        <path d="M12,4 C12.5522847,4 13,4.44771525 13,5 L13,5 L13,11 L19,11 C19.5128358,11 19.9355072,11.3860402 19.9932723,11.8833789 L20,12 C20,12.5522847 19.5522847,13 19,13 L19,13 L13,13 L13,19 C13,19.5128358 12.6139598,19.9355072 12.1166211,19.9932723 L12,20 C11.4477153,20 11,19.5522847 11,19 L11,19 L11,13 L5,13 C4.48716416,13 4.06449284,12.6139598 4.00672773,12.1166211 L4,12 C4,11.4477153 4.44771525,11 5,11 L5,11 L11,11 L11,5 C11,4.48716416 11.3860402,4.06449284 11.8833789,4.00672773 Z" id="path-1"></path>
    </defs>
    <g id="Symbols" stroke="none" stroke-width="1" fill="none" fill-rule="evenodd">
        <g id="v2---Nav-/-Level-2-/--child" transform="translate(-12.000000, -14.000000)">
            <g id="plus" transform="translate(8.000000, 10.000000)">
                <mask id="mask-2" fill="white">
                    <use xlink:href="#path-1"></use>
                </mask>
                <use id="Combined-Shape" fill="#000000" fill-rule="nonzero" xlink:href="#path-1"></use>
                <g id="COLOR/-white" mask="url(#mask-2)" fill="#FFFFFF" fill-rule="evenodd">
                    <rect id="Rectangle" x="0" y="0" width="24" height="24"></rect>
                </g>
            </g>
        </g>
    </g>
</svg>