<?xml version="1.0" encoding="UTF-8"?>
<svg viewBox="0 0 35 35" version="1.1" xmlns="http://www.w3.org/2000/svg" xmlns:xlink="http://www.w3.org/1999/xlink">
    <!-- Generator: Sketch 49 (51002) - http://www.bohemiancoding.com/sketch -->
    <title>social icon</title>
    <desc>Created with Sketch.</desc>
    <defs>
        <polygon id="path-1" points="0 0 20 0 20 16.1904762 0 16.1904762"></polygon>
    </defs>
    <g id="Page-1" stroke="none" stroke-width="1" fill="none" fill-rule="evenodd">
        <g id="News" transform="translate(-802.000000, -2677.000000)">
            <g id="Footer" transform="translate(0.000000, 2453.000000)">
                <g id="social-icon" transform="translate(802.000000, 224.000000)">
                    <circle id="Oval-2" fill="#FFFFFF" cx="17.5" cy="17.5" r="17.5"></circle>
                    <g id="Page-1" transform="translate(8.000000, 10.000000)">
                        <mask id="mask-2" fill="white">
                            <use xlink:href="#path-1"></use>
                        </mask>
                        <g id="Clip-2"></g>
                        <path d="M17.959,4.02819048 L17.959,4.56322344 C17.959,9.96336996 13.838,16.1904762 6.299,16.1904762 C3.9845,16.1904762 1.8065,15.684337 0,14.5265934 C0.3225,14.5754139 0.6445,14.5948425 0.9765,14.5948425 C2.8905,14.5948425 4.678,13.7678828 6.0645,12.6584615 C4.287,12.639033 2.754,11.4324689 2.246,9.81740659 C2.5,9.86622711 2.754,9.89512088 3.008,9.89512088 C3.379,9.89512088 3.75,9.84679853 4.1015,9.74915751 C2.2265,9.37951648 0.8105,7.72559707 0.8105,5.74089377 L0.8105,5.69207326 C1.367,5.9934652 1.992,6.17828571 2.666,6.19771429 C1.5525,5.45843223 0.83,4.21301099 0.83,2.81216117 C0.83,2.05295238 1.045,1.43024176 1.3865,0.826959707 C3.428,3.29837363 6.4355,4.83572161 9.834,5.02054212 C9.7655,4.72861538 9.746,4.3978315 9.746,4.07701099 C9.746,1.81931136 11.5725,0 13.838,0 C15.0195,0 16.084,0.506139194 16.8555,1.28427839 C17.7735,1.09945788 18.662,0.759208791 19.4435,0.29192674 C19.1405,1.24542125 18.496,2.05295238 17.6365,2.55909158 C18.4765,2.46145055 19.258,2.23777289 20,1.90698901 C19.4435,2.74391209 18.75,3.45430037 17.959,4.02819048" id="Fill-1" fill="#55ACEE" mask="url(#mask-2)"></path>
                    </g>
                </g>
            </g>
        </g>
    </g>
</svg>
